<svg xmlns="http://www.w3.org/2000/svg" viewBox="0 0 30 20" role="img"><rect width="30" height="20" fill="#f93"/><rect y="6.667" width="30" height="13.333" fill="#fff"/><rect y="13.333" width="30" height="6.667" fill="#138808"/><circle cx="15" cy="10" r="2.5" fill="none" stroke="#000080" stroke-width="0.28"/><circle cx="15" cy="10" r="0.45" fill="#000080"/><line x1="16.6" y1="10" x2="17.4" y2="10" stroke="#000080" stroke-width="0.22"/><line x1="16.545" y1="10.414" x2="17.318" y2="10.621" stroke="#000080" stroke-width="0.22"/><line x1="16.386" y1="10.8" x2="17.078" y2="11.2" stroke="#000080" stroke-width="0.22"/><line x1="16.131" y1="11.131" x2="16.697" y2="11.697" stroke="#000080" stroke-width="0.22"/><line x1="15.8" y1="11.386" x2="16.2" y2="12.078" stroke="#000080" stroke-width="0.22"/><line x1="15.414" y1="11.545" x2="15.621" y2="12.318" stroke="#000080" stroke-width="0.22"/><line x1="15" y1="11.6" x2="15" y2="12.4" stroke="#000080" stroke-width="0.22"/><line x1="14.586" y1="11.545" x2="14.379" y2="12.318" stroke="#000080" stroke-width="0.22"/><line x1="14.2" y1="11.386" x2="13.8" y2="12.078" stroke="#000080" stroke-width="0.22"/><line x1="13.869" y1="11.131" x2="13.303" y2="11.697" stroke="#000080" stroke-width="0.22"/><line x1="13.614" y1="10.8" x2="12.922" y2="11.2" stroke="#000080" stroke-width="0.22"/><line x1="13.455" y1="10.414" x2="12.682" y2="10.621" stroke="#000080" stroke-width="0.22"/><line x1="13.4" y1="10" x2="12.6" y2="10" stroke="#000080" stroke-width="0.22"/><line x1="13.455" y1="9.586" x2="12.682" y2="9.379" stroke="#000080" stroke-width="0.22"/><line x1="13.614" y1="9.2" x2="12.922" y2="8.8" stroke="#000080" stroke-width="0.22"/><line x1="13.869" y1="8.869" x2="13.303" y2="8.303" stroke="#000080" stroke-width="0.22"/><line x1="14.2" y1="8.614" x2="13.8" y2="7.922" stroke="#000080" stroke-width="0.22"/><line x1="14.586" y1="8.455" x2="14.379" y2="7.682" stroke="#000080" stroke-width="0.22"/><line x1="15" y1="8.4" x2="15" y2="7.6" stroke="#000080" stroke-width="0.22"/><line x1="15.414" y1="8.455" x2="15.621" y2="7.682" stroke="#000080" stroke-width="0.22"/><line x1="15.8" y1="8.614" x2="16.2" y2="7.922" stroke="#000080" stroke-width="0.22"/><line x1="16.131" y1="8.869" x2="16.697" y2="8.303" stroke="#000080" stroke-width="0.22"/><line x1="16.386" y1="9.2" x2="17.078" y2="8.8" stroke="#000080" stroke-width="0.22"/><line x1="16.545" y1="9.586" x2="17.318" y2="9.379" stroke="#000080" stroke-width="0.22"/></svg>